<svg xmlns="http://www.w3.org/2000/svg" version="1.1" xmlns:xlink="http://www.w3.org/1999/xlink" xmlns:svgjs="http://svgjs.com/svgjs" width="1440" height="560" preserveAspectRatio="none" viewBox="0 0 1440 560"><g mask="url(&quot;#SvgjsMask1034&quot;)" fill="none"><rect width="1440" height="560" x="0" y="0" fill="rgba(11, 22, 34, 1)"></rect><path d="M0,507.336C90.552,484.697,152.878,410.095,227.625,354.192C296.366,302.781,375.297,264.895,421.172,192.343C471.062,113.443,493.057,21.856,496.745,-71.421C501.016,-179.429,514.587,-302.867,443.99,-384.72C373.384,-466.584,249.571,-474.357,141.807,-482.95C49.13,-490.34,-35.222,-448.779,-126.316,-430.193C-227.761,-409.495,-345.199,-434.523,-424.1,-367.485C-505.102,-298.662,-529.685,-183.475,-541.078,-77.795C-552.209,25.454,-526.19,126.277,-487.73,222.739C-447.639,323.291,-408.27,435.24,-314.773,489.797C-222.131,543.855,-104.057,533.351,0,507.336" fill="#09131d"></path><path d="M1440 944.977C1511.349 945.9839999999999 1573.258 898.6569999999999 1629.062 854.187 1680.677 813.056 1722.343 761.427 1747.103 700.249 1771.145 640.845 1782.4940000000001 575.186 1767.165 512.961 1752.539 453.591 1703.748 412.352 1664.607 365.377 1624.622 317.389 1594.471 255.368 1535.462 234.885 1475.73 214.151 1407.682 228.709 1350.878 256.478 1298.574 282.047 1269.507 335.421 1234.559 381.98400000000004 1202.114 425.212 1168.3980000000001 466.79200000000003 1153.937 518.87 1138.05 576.084 1130.83 636.4929999999999 1148.112 693.3009999999999 1166.768 754.623 1205.794 807.039 1254.338 848.895 1308.204 895.3399999999999 1368.883 943.973 1440 944.977" fill="#0d1a27"></path></g><defs><mask id="SvgjsMask1034"><rect width="1440" height="560" fill="#ffffff"></rect></mask></defs></svg>